<svg width="60" height="60" viewBox="0 0 40 35" fill="none" xmlns="http://www.w3.org/2000/svg">
<path d="M21.3076 33.7363C21.1167 33.7374 20.9274 33.7009 20.7507 33.6288C20.574 33.5567 20.4132 33.4504 20.2777 33.3161L11.3133 24.3617C11.1774 24.227 11.0695 24.0668 10.9958 23.8902C10.9222 23.7137 10.8843 23.5243 10.8843 23.333C10.8843 23.1417 10.9222 22.9523 10.9958 22.7758C11.0695 22.5992 11.1774 22.4389 11.3133 22.3043C11.5851 22.0344 11.9528 21.8829 12.336 21.8829C12.7192 21.8829 13.0868 22.0344 13.3586 22.3043L21.3076 30.2444L33.6662 17.8995C34.4579 17.1673 35.0936 16.2831 35.5352 15.2998C35.9769 14.3164 36.2154 13.2542 36.2365 12.1767C36.2576 11.0991 36.0608 10.0284 35.658 9.0286C35.2552 8.02877 34.6546 7.1204 33.8922 6.35783C33.1298 5.59526 32.2211 4.99417 31.2207 4.59053C30.2203 4.18689 29.1487 3.989 28.0699 4.00871C26.9911 4.02841 25.9274 4.2653 24.9424 4.70519C23.9575 5.14509 23.0715 5.77896 22.3374 6.56886C22.2026 6.70467 22.0422 6.81246 21.8654 6.88602C21.6886 6.95958 21.499 6.99745 21.3076 6.99745C21.1161 6.99745 20.9265 6.95958 20.7497 6.88602C20.5729 6.81246 20.4125 6.70467 20.2777 6.56886C19.0199 5.31911 17.3829 4.5211 15.6227 4.29971C13.8626 4.07832 12.0786 4.44604 10.5499 5.34532C9.02128 6.2446 7.8342 7.62471 7.17444 9.2697C6.51468 10.9147 6.41947 12.7318 6.9037 14.4366C6.9764 14.7949 6.91076 15.1676 6.71993 15.4796C6.52909 15.7917 6.22719 16.0201 5.87478 16.1191C5.52237 16.2181 5.14551 16.1804 4.81981 16.0134C4.4941 15.8465 4.24364 15.5627 4.11866 15.219C3.48647 13.0089 3.57014 10.6558 4.35771 8.4961C5.14528 6.33642 6.59641 4.48083 8.50354 3.19475C10.4107 1.90866 12.6761 1.25794 14.9759 1.33568C17.2756 1.41341 19.4918 2.21561 21.3076 3.62753C23.4961 1.89114 26.2684 1.06013 29.0524 1.30596C31.8365 1.55179 34.4199 2.85571 36.2695 4.94867C38.1192 7.04164 39.094 9.76396 38.9928 12.5539C38.8917 15.3439 37.7223 17.9887 35.7259 19.9425L22.3374 33.3161C22.2019 33.4504 22.0412 33.5567 21.8644 33.6288C21.6877 33.7009 21.4985 33.7374 21.3076 33.7363ZM24.1071 23.8691L26.6455 17.5373H30.0108C30.3955 17.5373 30.7645 17.3846 31.0365 17.1129C31.3085 16.8412 31.4613 16.4726 31.4613 16.0883C31.4613 15.7041 31.3085 15.3355 31.0365 15.0638C30.7645 14.7921 30.3955 14.6394 30.0108 14.6394H25.6592C25.3687 14.6391 25.0848 14.726 24.8442 14.8887C24.6037 15.0515 24.4177 15.2826 24.3102 15.5522L22.8596 19.1166L19.857 9.82896C19.7616 9.53907 19.5771 9.28666 19.3296 9.10773C19.0822 8.92879 18.7845 8.83245 18.479 8.83245C18.1735 8.83245 17.8758 8.92879 17.6284 9.10773C17.3809 9.28666 17.1964 9.53907 17.101 9.82896L14.461 17.5373H2.45054C2.06583 17.5373 1.69688 17.6899 1.42485 17.9616C1.15282 18.2334 1 18.6019 1 18.9862C1 19.3705 1.15282 19.739 1.42485 20.0107C1.69688 20.2825 2.06583 20.4351 2.45054 20.4351H15.5054C15.8095 20.4359 16.1061 20.3412 16.3534 20.1644C16.6007 19.9876 16.7861 19.7376 16.8834 19.4499L18.4065 14.8712L21.3801 23.7966C21.4774 24.0844 21.6628 24.3344 21.9101 24.5112C22.1573 24.688 22.454 24.7827 22.7581 24.7819C23.0486 24.7822 23.3325 24.6953 23.573 24.5326C23.8135 24.3698 23.9996 24.1387 24.1071 23.8691Z" fill="#056DDC" stroke="#056DDC"/>
</svg>
